/* XPM */
static char * seci128_xpm[] = {
"128 128 3 1",
" 	c None",
".	c #F2941B",
"+	c #313333",
"                                                                                                                                ",
"                                                                                                                                ",
"                                                                                                                                ",
"                                                                                                                                ",
"                                                                                                                                ",
"                                                                                                                                ",
"                                                                                                                                ",
"                                                                                                                                ",
"                                                                                                                                ",
"                                                             .     +                                                            ",
"                                                            ..     ++                                                           ",
"                                                            ..     +++                                                          ",
"                                                           ...     ++++                                                         ",
"                                                          ....     +++++                                                        ",
"                                                         .....     ++++++                                                       ",
"                                                         .....     +++++++                                                      ",
"                                                        ......     ++++++++                                                     ",
"                                                       ........    +++++++++                                                    ",
"                                                       ........     +++++++++                                                   ",
"                                                      .........     ++++++++++                                                  ",
"                                                     ..........     +++++++++++                                                 ",
"                                                    ...........     ++++++++++++                                                ",
"                                                    ...........     +++++++++++++                                               ",
"                                                   ............     ++++++++++++++                                              ",
"                                                  .............     +++++++++++++++                                             ",
"                                                  .............     ++++++++++++++++                                            ",
"                                                 ..............     +++++++++++++++++                                           ",
"                                                ...............     ++++++++++++++++++                                          ",
"                                               .................    +++++++++++++++++++                                         ",
"                                               .................    ++++++++++++++++++++                                        ",
"                                              ..................    +++++++++++++++++++++                                       ",
"                                             ...................     +++++++++++++++++++++                                      ",
"                                             ...................     ++++++++++++++++++++++                                     ",
"                                            ....................     +++++++++++++++++++++++                                    ",
"                                           .....................     ++++++++++++++++++++++++                                   ",
"                                           .....................     +++++++++++++++++++++++++                                  ",
"                                          ......................     ++++++++++++++++++++++++++                                 ",
"                                         .......................      ++++++++++++++++++++++++++                                ",
"                                         ......................        ++++++++++++++++++++++++++                               ",
"                                        .......................         +++++++++++++++++++++++++++++++++++++++++++++++++++     ",
"                                       .......................           +++++++++++++++++++++++++++++++++++++++++++++++++      ",
"                                      .......................             +++++++++++++++++++++++++++++++++++++++++++++++       ",
"                                      .......................              +++++++++++++++++++++++++++++++++++++++++++++        ",
"                                     .......................                ++++++++++++++++++++++++++++++++++++++++++++        ",
"                                    .......................                  ++++++++++++++++++++++++++++++++++++++++++         ",
"                                    ......................                    ++++++++++++++++++++++++++++++++++++++++          ",
"                                   .......................                     +++++++++++++++++++++++++++++++++++++++          ",
"                                  .......................                       +++++++++++++++++++++++++++++++++++++           ",
"                                 .......................                         +++++++++++++++++++++++++++++++++++            ",
"                                 .......................                          +++++++++++++++++++++++++++++++++             ",
"                                .......................                            ++++++++++++++++++++++++++++++++             ",
"                               .......................                              ++++++++++++++++++++++++++++++              ",
"                               ......................                                ++++++++++++++++++++++++++++               ",
"                              .......................                                 +++++++++++++++++++++++++++               ",
"                             .......................                                   +++++++++++++++++++++++++                ",
"                            .......................                                     +++++++++++++++++++++++                 ",
"                            .......................                                     +++++++++++++++++++++++                 ",
"                           .......................                                     +++++++++++++++++++++++                  ",
"                          .......................                                     +++++++++++++++++++++++                   ",
"                          .......................                                     ++++++++++++++++++++++                    ",
"                         .......................                                     +++++++++++++++++++++++                    ",
"                        .......................                                     +++++++++++++++++++++++                     ",
"                        ......................                                     +++++++++++++++++++++++                      ",
"                       .......................                                     +++++++++++++++++++++++                      ",
"                      .......................                                     +++++++++++++++++++++++                       ",
"                      ......................                                     +++++++++++++++++++++++                        ",
"                     .......................                                     +++++++++++++++++++++++                        ",
"                    .......................                                     +++++++++++++++++++++++                         ",
"                   .......................                                     +++++++++++++++++++++++                          ",
"                   ......................                                      ++++++++++++++++++++++                           ",
"                  .......................                                     +++++++++++++++++++++++                           ",
"                 .......................                                     +++++++++++++++++++++++                            ",
"                 ......................                                     +++++++++++++++++++++++                             ",
"                .......................                                     +++++++++++++++++++++++                             ",
"               .........................                                   +++++++++++++++++++++++                              ",
"              ...........................                                 +++++++++++++++++++++++                               ",
"              ............................                                ++++++++++++++++++++++                                ",
"             ..............................                              +++++++++++++++++++++++                                ",
"            ................................                            +++++++++++++++++++++++                                 ",
"            .................................                          +++++++++++++++++++++++                                  ",
"           ...................................                         +++++++++++++++++++++++                                  ",
"          .....................................                       +++++++++++++++++++++++                                   ",
"         .......................................                     +++++++++++++++++++++++                                    ",
"         ........................................                    +++++++++++++++++++++++                                    ",
"        ..........................................                  +++++++++++++++++++++++                                     ",
"       ............................................                +++++++++++++++++++++++                                      ",
"       .............................................              +++++++++++++++++++++++                                       ",
"      ...............................................             +++++++++++++++++++++++                                       ",
"     .................................................           +++++++++++++++++++++++                                        ",
"     ..................................................         +++++++++++++++++++++++                                         ",
"                              ..........................        +++++++++++++++++++++++                                         ",
"                               ..........................      +++++++++++++++++++++++                                          ",
"                                ..........................     ++++++++++++++++++++++                                           ",
"                                 .........................     ++++++++++++++++++++++                                           ",
"                                  ........................     +++++++++++++++++++++                                            ",
"                                   .......................     ++++++++++++++++++++                                             ",
"                                    ......................     +++++++++++++++++++                                              ",
"                                     .....................     +++++++++++++++++++                                              ",
"                                      ....................     ++++++++++++++++++                                               ",
"                                       ....................     ++++++++++++++++                                                ",
"                                        ...................     ++++++++++++++++                                                ",
"                                         ..................     +++++++++++++++                                                 ",
"                                          .................     ++++++++++++++                                                  ",
"                                           ................     +++++++++++++                                                   ",
"                                            ...............     +++++++++++++                                                   ",
"                                             ..............     ++++++++++++                                                    ",
"                                              .............     +++++++++++                                                     ",
"                                               ............     +++++++++++                                                     ",
"                                                ...........     ++++++++++                                                      ",
"                                                 ..........     +++++++++                                                       ",
"                                                  ..........    +++++++++                                                       ",
"                                                   .........    ++++++++                                                        ",
"                                                    ........     ++++++                                                         ",
"                                                     .......     +++++                                                          ",
"                                                      ......     +++++                                                          ",
"                                                       .....     ++++                                                           ",
"                                                        ....     +++                                                            ",
"                                                         ...     +++                                                            ",
"                                                          ..     ++                                                             ",
"                                                           .     +                                                              ",
"                                                                                                                                ",
"                                                                                                                                ",
"                                                                                                                                ",
"                                                                                                                                ",
"                                                                                                                                ",
"                                                                                                                                ",
"                                                                                                                                ",
"                                                                                                                                "};
